<svg xmlns="http://www.w3.org/2000/svg" viewBox="0 0 236.18 161.78"><defs><style>.cls-1{fill:#be1622;}.cls-2{fill:#f6f6f6;}.cls-3{fill:#1d1d1b;}.cls-4{fill:#fff;}.cls-5{fill:#e73635;}</style></defs><g id="Calque_2" data-name="Calque 2"><g id="Contours"><rect class="cls-1" x="89.06" y="10" width="11.56" height="21.82"/><rect class="cls-1" x="135.16" y="10" width="11.72" height="23.59"/><path class="cls-2" d="M165.9,123s66.54,1.2,24.37-55.51c0,0-23.17-28.41,5-54.09,0,0-56.8,13.22-25.57,62.83,0,0,23.5,30.71-23.05,27.45,0,0-4.43,19.65-31,19.32H165.9"/><path class="cls-3" d="M116.34,124h-.66v-2H117c24.25-.31,28.53-17.79,28.7-18.55l.19-.82.85.06c14.82,1,23.85-1.25,26.84-6.79,4.06-7.54-4.55-19-4.64-19.08-9.47-15-11.92-28.27-7.34-39.41,7.73-18.79,32.42-24.74,33.47-25l3.69-.86L196,14.15c-27.16,24.74-5.85,51.6-4.93,52.74,13.15,17.67,17.2,31.67,12.08,41.64C195,124.31,167.2,124,165.89,124H116.34Zm13.14-2h36.44c.28,0,27.87.32,35.43-14.4,4.75-9.25.75-22.55-11.88-39.53-.2-.25-21.75-27.34,2.27-52.59C184.52,18,169,24.62,163.42,38.2c-4.32,10.52-1.92,23.14,7.14,37.53.34.43,9.42,12.47,4.76,21.13-3.33,6.18-12.72,8.83-27.93,7.88A27.75,27.75,0,0,1,129.48,122Z"/><path class="cls-1" d="M160.77,43.91l5.57,5.84,4.91-5.08,5.08,5.08,5-5.84s-2.43-15.52,13.93-30.49C195.29,13.42,164.22,20.7,160.77,43.91Z"/><path class="cls-3" d="M176.39,51.21l-5.13-5.13-4.93,5.1-6.61-6.93.07-.48c3.51-23.61,34-31,35.28-31.31l3.68-.86L196,14.15c-15.74,14.4-13.65,29.46-13.62,29.61l.07.45Zm-14.57-7.63,4.52,4.75,4.9-5.07,5,5,4.05-4.7c-.27-2.6-.81-15.15,11.43-28.09C183.59,18.26,164.69,26.41,161.82,43.58Z"/><path class="cls-2" d="M70.38,123S3.84,124.22,46,67.51c0,0,23.16-28.41-5-54.09,0,0,56.8,13.22,25.57,62.83,0,0-23.49,30.71,23.06,27.45,0,0,4.42,19.65,31,19.32H70.38"/><path class="cls-3" d="M120,124H70.39c-1.31,0-29.11.3-37.21-15.48-5.13-10-1.08-24,12-41.61.94-1.17,22.25-28-4.9-52.77L37.52,11.6l3.7.86c1,.24,25.74,6.19,33.47,25,4.58,11.14,2.12,24.38-7.29,39.34-.14.19-8.75,11.61-4.69,19.15,3,5.54,12,7.82,26.84,6.79l.84-.06.19.82c.17.76,4.46,18.24,28.7,18.55h1.31l0,2ZM44.54,15.51c24,25.25,2.47,52.34,2.24,52.62-12.6,17-16.6,30.25-11.85,39.5,7.56,14.72,35.16,14.42,35.44,14.4H106.8a27.75,27.75,0,0,1-17.91-17.29c-15.21,1-24.6-1.7-27.92-7.88-4.67-8.66,4.42-20.7,4.81-21.21,9-14.31,11.4-26.94,7.08-37.46C67.27,24.6,51.76,18,44.54,15.51Z"/><path class="cls-1" d="M75.52,43.91,70,49.75,65,44.67,60,49.75l-5-5.84S57.35,28.39,41,13.42C41,13.42,72.07,20.7,75.52,43.91Z"/><path class="cls-3" d="M59.9,51.21l-6-7,.07-.45c0-.15,2.11-15.21-13.63-29.61L37.53,11.6l3.69.86c1.29.3,31.77,7.7,35.27,31.31l.07.48L70,51.18,65,46.08Zm5.14-8,4.9,5.07,4.52-4.75C71.59,26.41,52.7,18.26,44.52,15.51,56.76,28.45,56.22,41,56,43.6l4,4.7Z"/><path class="cls-2" d="M174.35,130.89s71.33,1.29,26.12-59.5c0,0-24.83-30.45,5.39-58,0,0-60.88,14.17-27.41,67.34,0,0,25.18,32.91-24.71,29.43,0,0-4.74,21.05-33.2,20.7h53.81"/><path class="cls-3" d="M121.23,131.88h-.71l0-2h1.37c26.14-.33,30.82-19.73,30.87-19.93l.18-.83.85.06c15.92,1.12,25.62-1.35,28.83-7.31,4.38-8.12-4.88-20.4-5-20.53-10.14-16.08-12.76-30.25-7.86-42.17,8.27-20.11,34.7-26.47,35.82-26.73l3.69-.86-2.8,2.55c-29.18,26.59-5.53,56.32-5.28,56.62,14.07,18.92,18.41,33.9,12.93,44.56-8.67,16.88-38.44,16.58-39.83,16.55H121.23Zm13.65-2h39.49c.29,0,29.92.35,38-15.47,5.1-9.94.81-24.22-12.74-42.45-.22-.26-23.41-29.4,2.62-56.47-7.63,2.54-24.61,9.69-30.67,24.44-4.64,11.3-2.06,24.85,7.66,40.29.36.47,10.07,13.34,5.1,22.58-3.56,6.61-13.62,9.43-29.92,8.41C153.47,114.33,149,125.36,134.88,129.9Z"/><path class="cls-1" d="M168.85,46.1l6,6.26,5.27-5.44,5.45,5.44,5.39-6.26s-2.61-16.63,14.93-32.68C205.86,13.42,172.55,21.22,168.85,46.1Z"/><path class="cls-3" d="M185.59,53.81l-5.49-5.48-5.28,5.46-7-7.35.07-.48c3.75-25.26,37.41-33.42,37.75-33.5l3.69-.86-2.8,2.55C189.62,29.61,191.88,45.79,191.9,46l.07.45Zm-15.68-8,4.92,5.17,5.25-5.43,5.4,5.4,4.41-5.12c-.28-2.71-.92-16.31,12.43-30.29C193.69,18.37,173,27.12,169.91,45.77Z"/><path class="cls-2" d="M63.52,130.89s-71.33,1.29-26.12-59.5c0,0,24.83-30.45-5.39-58,0,0,60.88,14.17,27.41,67.34,0,0-25.18,32.91,24.71,29.43,0,0,4.74,21.05,33.2,20.7H63.52"/><path class="cls-3" d="M116.64,131.88H63.53c-1.39,0-31.16.33-39.83-16.55-5.48-10.66-1.14-25.64,12.91-44.52a48.65,48.65,0,0,0,8.48-18.36c3.11-14.27-1.51-27.16-13.74-38.3l-2.8-2.55,3.69.86c1.12.26,27.55,6.62,35.82,26.73,4.9,11.92,2.28,26.09-7.8,42.1-.15.2-9.41,12.48-5,20.6,3.21,6,12.91,8.43,28.83,7.31l.85-.06.18.83c.19.81,4.8,19.6,30.84,19.93h1.4l0,2ZM35.57,15.51c26,27.07,2.84,56.21,2.6,56.51-13.53,18.19-17.82,32.47-12.71,42.41,8.12,15.81,37.74,15.48,38,15.47H103c-14.11-4.54-18.59-15.57-19.59-18.67-16.29,1-26.36-1.8-29.91-8.41-5-9.24,4.73-22.11,5.14-22.66C68.3,64.8,70.88,51.25,66.24,40,60.18,25.2,43.2,18.05,35.57,15.51Z"/><path class="cls-1" d="M69,46.1l-6,6.26-5.27-5.44-5.45,5.44L46.94,46.1S49.55,29.47,32,13.42C32,13.42,65.32,21.22,69,46.1Z"/><path class="cls-3" d="M52.28,53.81,45.9,46.4,46,46c0-.16,2.28-16.34-14.62-31.8L28.56,11.6l3.68.86c.34.08,34,8.24,37.75,33.5l.08.48-7,7.35-5.29-5.46Zm5.51-8.3L63,50.94,68,45.77c-3.1-18.65-23.79-27.4-32.42-30.27C48.9,29.48,48.26,43.08,48,45.79l4.41,5.12Z"/><path class="cls-2" d="M180.84,137.45s75.3,1.36,27.57-62.82c0,0-26.21-32.15,5.69-61.21,0,0-64.28,15-28.94,71.1,0,0,25.54,34.59-27.14,30.91,0,0-4,22.39-34,22h56.82"/><path class="cls-3" d="M124.74,138.44H124l0-2h1.47c27.49-.35,31.4-20.34,31.56-21.2l.15-.87.89.06c17,1.19,27.4-1.47,30.94-7.9,4.7-8.56-4.57-21.31-4.66-21.44-10.68-17-13.45-31.89-8.28-44.46,8.72-21.2,36.6-27.92,37.79-28.19l3.69-.86-2.81,2.55c-30.85,28.11-5.84,59.54-5.58,59.86C224,94,228.6,109.76,222.83,121c-9.14,17.78-40.54,17.46-42,17.44H124.74Zm13.92-2h42.19c.31,0,31.63.36,40.22-16.37,5.4-10.51.87-25.61-13.45-44.87-.24-.28-24.77-31.12,2.92-59.72-7.95,2.62-26.16,10.18-32.63,25.91C173,53.35,175.73,67.68,186,84c.37.5,10.07,13.83,4.76,23.5-3.87,7-14.63,10.07-32,9C157.88,119.79,153.64,131.7,138.66,136.46Z"/><path class="cls-1" d="M175,47.93l6.3,6.61,5.56-5.75,5.75,5.75,5.69-6.61s-2.75-17.57,15.77-34.51C214.1,13.42,178.93,21.66,175,47.93Z"/><path class="cls-3" d="M192.7,56l-5.79-5.79L181.33,56,174,48.26l.07-.48c4-26.62,39.47-35.24,39.82-35.32l3.69-.86-2.79,2.55C196.9,30.5,199.28,47.6,199.31,47.78l.07.45ZM176.08,47.6l5.26,5.51,5.54-5.73,5.71,5.7,4.71-5.47c-.3-2.8-1-17.27,13.26-32.12C201.57,18.45,179.36,27.7,176.08,47.6Z"/><path class="cls-2" d="M55.65,137.45s-75.3,1.36-27.57-62.82c0,0,26.21-32.15-5.69-61.21,0,0,64.28,15,28.94,71.1,0,0-25.79,34.73,26.88,31,0,0,4.22,22.26,34.26,21.89H55.65"/><path class="cls-3" d="M111.74,138.44H55.66c-1.45,0-32.86.34-42-17.44-5.77-11.24-1.19-27,13.63-47a51.36,51.36,0,0,0,9-19.4c3.29-15.09-1.59-28.71-14.52-40.49L18.92,11.6l3.7.86c1.18.27,29.06,7,37.78,28.19,5.17,12.57,2.4,27.51-8.24,44.4-.14.19-9.55,13.06-4.83,21.66,3.51,6.41,13.88,9.05,30.81,7.87l.88-.06.16.86c.17.86,4.32,20.73,31.81,21.08h1.48l0,2ZM26,15.5c27.7,28.6,3.15,59.44,2.9,59.76C14.55,94.48,10,109.58,15.42,120.09c8.59,16.73,39.91,16.38,40.22,16.37H97.77c-15-4.74-19.37-16.57-20.31-19.85-17.3,1.09-28-1.92-31.87-9-5.32-9.71,4.52-23.15,4.94-23.72,10.24-16.25,13-30.58,8-42.52C52.1,25.66,33.9,18.11,26,15.5Z"/><path class="cls-1" d="M61.46,47.93l-6.3,6.61L49.6,48.79l-5.75,5.75-5.69-6.61s2.75-17.57-15.77-34.51C22.39,13.42,57.56,21.66,61.46,47.93Z"/><path class="cls-3" d="M43.79,56l-6.68-7.76.07-.45c0-.18,2.41-17.28-15.46-33.63L18.93,11.6l3.69.86c.35.08,35.86,8.7,39.82,35.32l.07.48L55.17,56,49.58,50.2Zm5.82-8.61,5.54,5.73,5.26-5.51C57.13,27.7,34.93,18.45,25.93,15.49,40.21,30.34,39.49,44.81,39.19,47.61l4.71,5.47Z"/><path class="cls-2" d="M47.74,147s-81.08,1.46-29.69-67.63c0,0,28.22-34.61-6.13-65.9,0,0,69.21,16.11,31.16,76.55,0,0-30,38.79,37.16,33.05,0,0,5.52,18.62,28.67,23.93H47.74"/><path class="cls-3" d="M47.18,147.94c-4.76,0-35.32-.71-44.59-18.74-6.2-12.07-1.27-29,14.67-50.47a55.53,55.53,0,0,0,9.66-20.91c3.55-16.28-1.72-31-15.66-43.67L8.46,11.6l3.69.86c1.27.29,31.25,7.51,40.63,30.31,5.55,13.5,2.57,29.56-8.87,47.73-.15.2-10.12,13.31-5.08,22.53,4.27,7.84,18.57,11,41.32,9L81,122l.23.77c.06.18,5.67,18.14,27.95,23.24l8.51,2H47.18ZM15.49,15.49c30.1,30.81,3.6,64.11,3.32,64.45C3.4,100.67-1.48,117,4.35,128.29c9.27,18.06,43,17.68,43.37,17.67h54.55a39.32,39.32,0,0,1-22.71-21.89C56.07,126,41.79,122.59,37.09,114c-5.65-10.35,4.76-24,5.2-24.61,11-17.51,14-32.95,8.66-45.83C43.9,26.37,23.9,18.23,15.49,15.49Z"/><path class="cls-1" d="M54,50.57,47.2,57.69l-6-6.19L35,57.69,28.9,50.57s3-18.91-17-37.15C11.92,13.42,49.79,22.29,54,50.57Z"/><path class="cls-3" d="M35,59.14l-7.12-8.27.07-.45c0-.19,2.61-18.64-16.66-36.27L8.47,11.6l3.68.86c.39.09,38.56,9.35,42.81,38l.07.48-7.82,8.21-6-6.21Zm6.25-9,6,6.17,5.73-6C49.38,28.53,25,18.57,15.47,15.49,31.1,31.58,30.25,47.32,29.93,50.26l5.15,6Z"/><path class="cls-4" d="M188.46,146.89s81,1.46,29.68-67.6c0,0-28.21-34.6,6.12-65.87,0,0-69.17,16.1-31.14,76.52,0,0,29.94,39.81-37.14,33.08,0,0-5.52,18.56-28.66,23.87h61.14"/><path class="cls-3" d="M189,147.88H118.59l8.51-2c22.27-5.1,27.88-23,27.93-23.18l.23-.78.81.08c22.9,2.29,36.76-.54,41.2-8.42,5.26-9.32-4.84-23-4.94-23.09-11.48-18.22-14.46-34.28-8.91-47.77,9.37-22.79,39.34-30,40.61-30.3l3.7-.86-2.81,2.55C211,26.85,205.72,41.53,209.27,57.8a55.51,55.51,0,0,0,9.63,20.87c15.95,21.44,20.88,38.42,14.69,50.48C224.33,147.17,193.78,147.88,189,147.88Zm-55.06-2h54.52c.34,0,34.08.39,43.35-17.66,5.82-11.33.95-27.61-14.49-48.36-.25-.31-26.74-33.6,3.35-64.39-8.4,2.74-28.39,10.87-35.44,28C180,56.39,182.89,71.83,194,89.41c.4.53,10.92,14.73,5,25.18-4.81,8.53-19.06,11.73-42.35,9.49A39.29,39.29,0,0,1,134,145.9Z"/><path class="cls-1" d="M182.22,50.55,189,57.67l6-6.19,6.19,6.19,6.12-7.12s-3-18.9,17-37.13C224.26,13.42,186.41,22.28,182.22,50.55Z"/><path class="cls-3" d="M201.22,59.12,195,52.89l-6,6.2-7.82-8.2.07-.48c4.25-28.6,42.41-37.86,42.79-37.95l3.69-.86-2.79,2.55c-19.27,17.62-16.69,36.07-16.66,36.25l.07.45Zm-17.95-8.9,5.73,6,6-6.17,6.15,6.14,5.14-6c-.32-2.94-1.17-18.67,14.45-34.75C211.21,18.57,186.82,28.53,183.27,50.22Z"/><path class="cls-2" d="M148.77,55.18s-19.5,8.06-23.43,23.53a12.76,12.76,0,0,1-14.44,0C107,63.24,87.47,55.18,87.47,55.18c-2.12,5.62-16.85,45.72-6.61,69.4a35,35,0,0,0,7.38,11.25C98.59,146.3,113,146.9,118,146.88h.24C186.22,144.17,148.77,55.18,148.77,55.18Z"/><path class="cls-3" d="M117.19,147.91v0c-7.33-.07-20.18-1.75-29.65-11.34A35.7,35.7,0,0,1,80,125c-10.11-23.34,3.71-62.52,6.59-70.14l.35-1,.95.39c.81.34,19.72,8.32,23.92,23.86a11.88,11.88,0,0,0,12.7,0c4.2-15.54,23.11-23.52,23.92-23.86l.91-.37.38.9c.84,2,20.49,49.45,3.58,76-6.64,10.45-18.09,16.17-34,17v.08l-1,0ZM88,56.51c-3.46,9.42-15.69,45.89-6.26,67.68a34.13,34.13,0,0,0,7.17,10.95c9.21,9.32,21.89,10.75,28.8,10.75h.52c15.72-.64,26.94-6.06,33.33-16.12,15.08-23.71-.66-66.4-3.35-73.27-3.85,1.81-18.66,9.53-22,22.45l-.08.31-.25.21a13.69,13.69,0,0,1-15.69,0l-.24-.21L110,79C106.67,66.06,91.91,58.34,88,56.51Z"/><path class="cls-2" d="M149.58,37.09c4.5-27.94-2.43-35.72-2.43-35.72l-23,19.22a42.61,42.61,0,0,0-6.06-.33,42.61,42.61,0,0,0-6.06.33l-23-19.22s-6.93,7.78-2.44,35.72c0,0-6.12,9.66-7.18,15A30.2,30.2,0,0,1,86,43.77S114.21,41.21,115.24,63c0,0,1.27,2.56,2.88,2.84C119.73,65.52,121,63,121,63c1-21.75,29.22-19.19,29.22-19.19a30.8,30.8,0,0,1,6.56,8.11C155.71,46.57,149.58,37.09,149.58,37.09ZM95.22,21.81s.25,7.21-4.53,10.87c0,0-3.66-10.31,0-24L101.37,23S98.25,26.4,95.22,21.81Zm50.33,10.87C140.77,29,141,21.81,141,21.81c-3,4.59-6.15,1.22-6.15,1.22L145.55,8.68C149.21,22.37,145.55,32.68,145.55,32.68Z"/><path class="cls-3" d="M118.12,66.81l-.17,0c-2-.37-3.44-3.08-3.59-3.39l-.09-.18V63a16.76,16.76,0,0,0-5.62-12.36c-7.47-6.51-20.11-6-22.22-5.9a29.78,29.78,0,0,0-6.07,7.77l-3.23,6.25,1.38-6.89c1-4.95,6-13.24,7.12-15C81.22,9.1,88.06,1,88.35.71L89,0l23.37,19.55a45.65,45.65,0,0,1,5.77-.28,45.62,45.62,0,0,1,5.75.28L147.25,0l.63.71c.3.33,7.14,8.39,2.74,36.16,1.1,1.74,6.13,9.88,7.12,14.82l1.31,6.55-3.15-5.89a30.36,30.36,0,0,0-6.08-7.61c-2.11-.13-14.75-.62-22.22,5.9A16.76,16.76,0,0,0,122,63v.21l-.09.18c-.15.31-1.54,3-3.59,3.39Zm-1.9-4.12a4.94,4.94,0,0,0,1.9,2.09,4.94,4.94,0,0,0,1.9-2.09,18.61,18.61,0,0,1,6.28-13.55c8.78-7.64,23.38-6.41,24-6.35l.3,0,.24.19A24.13,24.13,0,0,1,153,45.09c-2-3.89-4.24-7.41-4.28-7.47l-.2-.32.06-.37c3.61-22.4-.19-31.54-1.67-34.1l-22.46,18.8-.43-.06a43,43,0,0,0-5.92-.33,41.62,41.62,0,0,0-5.94.33l-.43.06L89.3,2.84c-1.46,2.59-5.25,11.85-1.67,34.09l.06.37-.2.31c0,.06-2.22,3.52-4.17,7.37a23,23,0,0,1,2.08-2l.24-.19.3,0c.62-.06,15.22-1.29,24,6.35A18.58,18.58,0,0,1,116.22,62.69ZM146,34.29,145,33.47c-3.35-2.57-4.42-6.64-4.77-9.25a4.34,4.34,0,0,1-2.35,1,5,5,0,0,1-3.69-1.5l-.56-.61L146,6.46l.53,2c3.69,13.82.13,24.15,0,24.58Zm-3.91-15.94L142,21.84c0,.06-.14,5.55,3,9A44.6,44.6,0,0,0,145.09,11l-8.86,11.89a2.49,2.49,0,0,0,1.45.37,3.69,3.69,0,0,0,2.52-2ZM90.21,34.29,89.75,33c-.15-.43-3.71-10.76,0-24.58l.53-2,12.39,16.63-.55.61a5,5,0,0,1-3.69,1.5,4.4,4.4,0,0,1-2.36-1c-.34,2.61-1.41,6.68-4.76,9.25ZM91.15,11a44.6,44.6,0,0,0,0,19.91c3.16-3.48,3-9,3-9l-.11-3.49L96,21.26a3.69,3.69,0,0,0,2.52,2,2.44,2.44,0,0,0,1.44-.37Z"/><path class="cls-1" d="M78.89,57.69l7.82-2.84S106,62.19,110.9,78.71c0,0,7.38,5.1,14.44,0,0,0,2.42-14.41,24.2-23.86l8.22,2.36s-3.48-10.39-7.55-13.44C150.21,43.77,122,41,121,63c0,0-2.64,6.61-5.75,0,0,0,1.17-20.14-29.21-19.19C86,43.77,80.47,54.55,78.89,57.69Z"/><path class="cls-3" d="M118.5,82a16,16,0,0,1-8.16-2.43l-.29-.2L110,79c-4.32-14.67-20.73-22-23.27-23.07L76.9,59.46,78,57.24c1.56-3.11,7.09-13.81,7.14-13.92l.27-.52H86c11.42-.36,19.84,2.15,25,7.48a18.25,18.25,0,0,1,5.22,12.48c.79,1.6,1.48,2.15,1.89,2.16.63,0,1.48-1.25,1.89-2.17.29-5.76,2.42-10.39,6.33-13.78,8.78-7.59,23.34-6.23,24-6.17l.27,0,.22.16c4.27,3.2,7.75,13.48,7.89,13.92l.6,1.78-9.68-2.78c-20.66,9.1-23.28,22.83-23.3,23l-.07.4-.33.24A12.38,12.38,0,0,1,118.5,82Zm-6.76-3.88c1.34.82,7.08,3.87,12.71.05.58-2.53,4.49-15.41,24.7-24.18l.32-.14,6.69,1.93c-1.14-3-3.62-8.77-6.33-11-2-.14-14.69-.76-22.19,5.73-3.52,3-5.42,7.27-5.66,12.54v.17l-.06.15c-.14.36-1.46,3.5-3.72,3.56-1.44,0-2.71-1.1-3.84-3.5l-.11-.23,0-.25a16.4,16.4,0,0,0-4.68-11.28c-4.7-4.8-12.41-7.12-22.94-6.88-.9,1.76-3.88,7.54-5.74,11.16l5.81-2.1.35.13C87.86,54.23,106.64,61.53,111.74,78.07Z"/><path class="cls-2" d="M32,142.46s3.51,45,109.13-5.87c0,0,23.87-11.61,51.61,2.62,0,0-17.11-48.47-67.49-27.74,0,0-90.11,41-45.79,9.29,0,0-3.1-9.75-1.48-27.95C78,92.81,27.53,112.63,32,142.46Z"/><path class="cls-3" d="M62,161.78c-9.38,0-15.86-1.94-20.33-4.51-9.56-5.5-10.53-14-10.6-14.69-4.51-30.25,44.51-49.87,46.6-50.69l1.49-.58L79,92.9c-1.58,17.75,1.4,27.47,1.43,27.57l.22.68-.59.42c-10.08,7.21-11.6,9.56-11.81,10.19,3.46,1.29,31.26-9.65,56.62-21.19,15.66-6.44,29.73-6.95,41.86-1.53,19.3,8.63,26.67,29,27,29.84l.82,2.35-2.21-1.14c-27-13.84-50.5-2.73-50.73-2.61C103.23,155.94,78.24,161.78,62,161.78Zm-29-19.4c0,.33.77,8.12,9.67,13.21,11.84,6.76,38.46,8.81,98-19.89.23-.12,23.26-11,50.12,1.47-2.56-5.61-10.22-19.75-25-26.33-11.61-5.19-25.15-4.67-40.24,1.54-.11.05-14,6.36-28,12.06-29.15,11.82-30.46,9.55-31.16,8.33-.8-1.38-.53-3.48,11.88-12.41-.65-2.46-2.57-11.3-1.45-26-8.24,3.56-47.78,22.09-43.89,48Z"/><path class="cls-1" d="M141,106.94l-3.3,8.53,6.59,5.75-3.73,7.39,7.57,5.56s24.78-6.33,44.65,5C192.75,139.18,178.63,101,141,106.94Z"/><path class="cls-3" d="M194.62,141.38,192.26,140c-19.28-11-43.67-5-43.92-4.9l-.45.12-8.62-6.34,3.76-7.45-6.53-5.7,3.76-9.71.56-.09c38-6,52.72,32.48,52.86,32.87Zm-30.16-10c7.81,0,17.34,1.2,26.25,5.58-4-8.27-18.68-33.57-49-29.14l-2.85,7.35,6.65,5.8-3.7,7.33,6.52,4.8A74.53,74.53,0,0,1,164.46,131.39Z"/><line class="cls-5" x1="117.4" y1="34.83" x2="117.4" y2="34.83"/></g></g></svg>